<svg width="344" height="10" viewBox="0 0 344 10" fill="none" xmlns="http://www.w3.org/2000/svg">
<path d="M172.544 5.32103L172.479 5.31533L172.416 5.32628C168.029 6.0783 164.363 6.86956 161.339 7.52816C161.233 7.55131 161.127 7.57429 161.022 7.5971C158.14 8.22509 155.878 8.71775 154.126 8.93312C152.283 9.15979 151.154 9.05515 150.484 8.61808C149.866 8.21506 149.5 7.42465 149.5 5.81909C149.5 4.16956 149.661 2.96064 150.151 2.11833C150.614 1.32264 151.42 0.776741 152.939 0.57967C154.483 0.379485 156.7 0.550334 159.875 1.15943C163.04 1.76677 167.117 2.80122 172.363 4.29988L172.494 4.33749L172.627 4.3028C177.874 2.92855 181.953 1.95566 185.122 1.37102C188.3 0.784702 190.521 0.597187 192.07 0.768301C193.599 0.937202 194.398 1.44454 194.854 2.19643C195.338 2.99569 195.5 4.16732 195.5 5.81909C195.5 7.4188 195.109 8.07882 194.499 8.3768C194.159 8.54327 193.691 8.63007 193.049 8.62705C192.41 8.62405 191.637 8.53262 190.709 8.37403C189.692 8.20018 188.502 7.9471 187.133 7.65595C183.54 6.89184 178.715 5.86552 172.544 5.32103Z" fill="white" stroke="#355449"/>
<line y1="4.85159" x2="344.001" y2="4.85159" stroke="#355449"/>
</svg>
